<?xml version="1.0" encoding="UTF-8" standalone="no"?>
<!-- Created with Inkscape (http://www.inkscape.org/) -->

<svg
   xmlns:dc="http://purl.org/dc/elements/1.1/"
   xmlns:cc="http://creativecommons.org/ns#"
   xmlns:rdf="http://www.w3.org/1999/02/22-rdf-syntax-ns#"
   xmlns:svg="http://www.w3.org/2000/svg"
   xmlns="http://www.w3.org/2000/svg"
   xmlns:sodipodi="http://sodipodi.sourceforge.net/DTD/sodipodi-0.dtd"
   xmlns:inkscape="http://www.inkscape.org/namespaces/inkscape"
   width="51.257355mm"
   height="48.791218mm"
   viewBox="0 0 181.62055 172.88227"
   id="svg4408"
   version="1.1"
   inkscape:version="0.91 r13725"
   sodipodi:docname="edelweiss_ER_band_GGA3.svg">
  <defs
     id="defs4410" />
  <sodipodi:namedview
     id="base"
     pagecolor="#ffffff"
     bordercolor="#666666"
     borderopacity="1.0"
     inkscape:pageopacity="0.0"
     inkscape:pageshadow="2"
     inkscape:zoom="1.4"
     inkscape:cx="-115.61829"
     inkscape:cy="100.72685"
     inkscape:document-units="px"
     inkscape:current-layer="layer1"
     showgrid="false"
     fit-margin-top="0"
     fit-margin-left="0"
     fit-margin-right="0"
     fit-margin-bottom="0"
     inkscape:window-width="1500"
     inkscape:window-height="937"
     inkscape:window-x="-8"
     inkscape:window-y="-8"
     inkscape:window-maximized="1" />
  <metadata
     id="metadata4413">
    <rdf:RDF>
      <cc:Work
         rdf:about="">
        <dc:format>image/svg+xml</dc:format>
        <dc:type
           rdf:resource="http://purl.org/dc/dcmitype/StillImage" />
        <dc:title></dc:title>
      </cc:Work>
    </rdf:RDF>
  </metadata>
  <g
     inkscape:label="Layer 1"
     inkscape:groupmode="layer"
     id="layer1"
     transform="translate(-223.47543,-260.20679)">
    <text
       y="280.90784"
       x="335.39685"
       style="font-variant:normal;font-weight:normal;font-size:8.35262489px;font-family:Helvetica;-inkscape-font-specification:Helvetica;writing-mode:lr-tb;fill:#000000;fill-opacity:1;fill-rule:nonzero;stroke:none"
       id="text508">
      <tspan
         x="335.39685 340.96722 346.99698 352.56735 356.62589 364.50992 370.08029 372.40149 377.97186"
         y="280.90784"
         sodipodi:role="line"
         id="tspan510">EDELWEISS</tspan>
    </text>
    <text
       y="289.37518"
       x="335.55923"
       style="font-variant:normal;font-weight:normal;font-size:5.96612501px;font-family:Helvetica;-inkscape-font-specification:Helvetica;writing-mode:lr-tb;fill:#000000;fill-opacity:1;fill-rule:nonzero;stroke:none"
       id="text512">
      <tspan
         x="335.55923 338.87698 342.19473"
         y="289.37518"
         sodipodi:role="line"
         id="tspan514">252</tspan>
    </text>
    <text
       y="292.95496"
       x="345.51047"
       style="font-variant:normal;font-weight:normal;font-size:8.35262489px;font-family:Helvetica;-inkscape-font-specification:Helvetica;writing-mode:lr-tb;fill:#000000;fill-opacity:1;fill-rule:nonzero;stroke:none"
       id="text516">
      <tspan
         x="345.51047 351.54108 353.8631 356.18512 360.36145 365.00549 366.8598 368.71408 373.35812 376.05603 380.70007 383.02213 384.8764 389.52045"
         y="292.95496"
         sodipodi:role="line"
         id="tspan518">Cf calibration</tspan>
      <tspan
         x="335.39545 341.8938 348.39212 353.96335 358.60739 360.92941 365.57349 370.21753 372.53958 377.18362 381.35995 383.68198 388.32605"
         y="302.61057"
         sodipodi:role="line"
         id="tspan520">GGA3 detector</tspan>
      <tspan
         x="352.95267"
         y="384.67511"
         id="tspan522">a</tspan>
    </text>
    <text
       y="387.06058"
       x="357.60159"
       style="font-variant:normal;font-weight:normal;font-size:5.96612501px;font-family:Helvetica;-inkscape-font-specification:Helvetica;writing-mode:lr-tb;fill:#000000;fill-opacity:1;fill-rule:nonzero;stroke:none"
       id="text524">
      <tspan
         x="357.60159"
         y="387.06058"
         id="tspan526">H</tspan>
    </text>
    <text
       y="384.67432"
       x="361.90909"
       style="font-variant:normal;font-weight:normal;font-size:8.35262489px;font-family:Helvetica;-inkscape-font-specification:Helvetica;writing-mode:lr-tb;fill:#000000;fill-opacity:1;fill-rule:nonzero;stroke:none"
       id="text528">
      <tspan
         x="361.90909 366.78702 371.43109 373.75311 378.39719 383.04123"
         y="384.67432"
         sodipodi:role="line"
         id="tspan530">=0.020</tspan>
      <tspan
         x="352.95508"
         y="357.37796"
         id="tspan532">a</tspan>
    </text>
    <text
       y="359.76245"
       x="357.60159"
       style="font-variant:normal;font-weight:normal;font-size:5.96612501px;font-family:Helvetica;-inkscape-font-specification:Helvetica;writing-mode:lr-tb;fill:#000000;fill-opacity:1;fill-rule:nonzero;stroke:none"
       id="text534">
      <tspan
         x="357.60159"
         y="359.76245"
         id="tspan536">H</tspan>
    </text>
    <text
       y="357.37595"
       x="361.90909"
       style="font-variant:normal;font-weight:normal;font-size:8.35262489px;font-family:Helvetica;-inkscape-font-specification:Helvetica;writing-mode:lr-tb;fill:#000000;fill-opacity:1;fill-rule:nonzero;stroke:none"
       id="text538">
      <tspan
         x="361.90909 366.78702 371.43109 373.75311 378.39719 383.04123"
         y="357.37595"
         sodipodi:role="line"
         id="tspan540">=0.035</tspan>
      <tspan
         x="312.75391"
         y="430.70364"
         id="tspan542">E</tspan>
    </text>
    <text
       y="433.08905"
       x="318.32224"
       style="font-variant:normal;font-weight:normal;font-size:5.96612501px;font-family:Helvetica;-inkscape-font-specification:Helvetica;writing-mode:lr-tb;fill:#000000;fill-opacity:1;fill-rule:nonzero;stroke:none"
       id="text544">
      <tspan
         x="318.32224"
         y="433.08905"
         id="tspan546">R</tspan>
    </text>
    <text
       y="430.70157"
       x="322.62973"
       style="font-variant:normal;font-weight:normal;font-size:8.35262489px;font-family:Helvetica;-inkscape-font-specification:Helvetica;writing-mode:lr-tb;fill:#000000;fill-opacity:1;fill-rule:nonzero;stroke:none"
       id="text548">
      <tspan
         x="322.62973 325.41113 329.40372 334.04776 339.61896"
         y="430.70157"
         sodipodi:role="line"
         id="tspan550">(keV)</tspan>
    </text>
    <path
       d="m 258.20623,262.78369 140.33,0 0,144.8025 -140.33,0 0,-144.8025 z"
       style="fill:none;stroke:#000000;stroke-width:0.375;stroke-linecap:butt;stroke-linejoin:miter;stroke-miterlimit:10;stroke-dasharray:none;stroke-opacity:1"
       id="path552"
       inkscape:connector-curvature="0" />
    <g
       id="g554"
       transform="matrix(1.25,0,0,-1.25,258.20623,407.58619)">
      <path
         d="M 0,0 0,115.842 M 2.938,0 0,0 m 2.938,38.636 -2.938,0 m 2.938,38.57 -2.938,0 m 2.938,38.636 -2.938,0"
         style="fill:none;stroke:#000000;stroke-width:0.5;stroke-linecap:butt;stroke-linejoin:miter;stroke-miterlimit:10;stroke-dasharray:none;stroke-opacity:1"
         id="path556"
         inkscape:connector-curvature="0" />
    </g>
    <text
       y="409.90045"
       x="249.10034"
       style="font-variant:normal;font-weight:normal;font-size:8.35262489px;font-family:Helvetica;-inkscape-font-specification:Helvetica;writing-mode:lr-tb;fill:#000000;fill-opacity:1;fill-rule:nonzero;stroke:none"
       id="text558">
      <tspan
         x="249.10034"
         y="409.90045"
         id="tspan560">0</tspan>
      <tspan
         x="237.49019 242.13426 244.45628 249.10034"
         y="362.79999"
         sodipodi:role="line"
         id="tspan562">0.05</tspan>
      <tspan
         x="242.13426 246.77832 249.10034"
         y="314.50513"
         sodipodi:role="line"
         id="tspan564">0.1</tspan>
      <tspan
         x="237.49019 242.13426 244.45628 249.10034"
         y="266.21024"
         sodipodi:role="line"
         id="tspan566">0.15</tspan>
    </text>
    <g
       id="g568"
       transform="matrix(1.25,0,0,-1.25,258.20623,407.58619)">
      <path
         d="M 0,0 112.264,0 M 0,2.874 0,0 m 28.099,2.874 0,-2.874 m 28.033,2.874 0,-2.874 m 28.034,2.874 0,-2.874 m 28.098,2.874 0,-2.874"
         style="fill:none;stroke:#000000;stroke-width:0.5;stroke-linecap:butt;stroke-linejoin:miter;stroke-miterlimit:10;stroke-dasharray:none;stroke-opacity:1"
         id="path570"
         inkscape:connector-curvature="0" />
    </g>
    <text
       y="418.44543"
       x="256.47522"
       style="font-variant:normal;font-weight:normal;font-size:8.35262489px;font-family:Helvetica;-inkscape-font-specification:Helvetica;writing-mode:lr-tb;fill:#000000;fill-opacity:1;fill-rule:nonzero;stroke:none"
       id="text572">
      <tspan
         x="256.47522 288.67459 293.31866 322.02661 326.67068 331.31476 357.03247 361.67654 366.32059 391.56223 396.2063 400.85034"
         y="418.44543"
         sodipodi:role="line"
         id="tspan574">050100150200</tspan>
    </text>
    <g
       id="g576"
       transform="matrix(1.25,0,0,-1.25,398.53622,407.58619)">
      <path
         d="M 0,0 0,115.842 M -2.874,0 0,0 m -2.874,38.636 2.874,0 m -2.874,38.57 2.874,0 m -2.874,38.636 2.874,0 m -67.475,0 67.475,0 m -112.264,0 44.789,0 m -44.789,-2.874 0,2.874 m 28.099,-2.874 0,2.874 m 28.033,-2.874 0,2.874 m 28.034,-2.874 0,2.874 M 0,112.968 l 0,2.874"
         style="fill:none;stroke:#000000;stroke-width:0.5;stroke-linecap:butt;stroke-linejoin:miter;stroke-miterlimit:10;stroke-dasharray:none;stroke-opacity:1"
         id="path578"
         inkscape:connector-curvature="0" />
    </g>
    <g
       id="g580"
       transform="matrix(1.25,0,0,-1.25,277.84374,328.55995)">
      <path
         d="m 0,0 0,5.3 m 0,1.469 0,5.237 M -0.703,0 0.702,0 m -1.405,12.006 1.405,0"
         style="fill:none;stroke:#000000;stroke-width:0.30000001;stroke-linecap:butt;stroke-linejoin:miter;stroke-miterlimit:10;stroke-dasharray:none;stroke-opacity:1"
         id="path582"
         inkscape:connector-curvature="0" />
    </g>
    <g
       id="g584"
       transform="matrix(1.25,0,0,-1.25,278.76123,321.04494)">
      <path
         d="m 0,0 c 0,0.407 -0.328,0.736 -0.733,0.736 -0.405,0 -0.735,-0.329 -0.735,-0.736 0,-0.404 0.33,-0.733 0.735,-0.733 C -0.328,-0.733 0,-0.404 0,0"
         style="fill:#000000;fill-opacity:1;fill-rule:evenodd;stroke:none"
         id="path586"
         inkscape:connector-curvature="0" />
    </g>
    <g
       id="g588"
       transform="matrix(1.25,0,0,-1.25,292.29124,353.94369)">
      <path
         d="m 0,0 0,5.044 m 0,1.469 0,5.045 M -0.702,0 0.767,0 m -1.469,11.558 1.469,0"
         style="fill:none;stroke:#000000;stroke-width:0.30000001;stroke-linecap:butt;stroke-linejoin:miter;stroke-miterlimit:10;stroke-dasharray:none;stroke-opacity:1"
         id="path590"
         inkscape:connector-curvature="0" />
    </g>
    <g
       id="g592"
       transform="matrix(1.25,0,0,-1.25,293.20747,346.77369)">
      <path
         d="m 0,0 c 0,0.405 -0.328,0.734 -0.733,0.734 -0.405,0 -0.735,-0.329 -0.735,-0.734 0,-0.406 0.33,-0.735 0.735,-0.735 C -0.328,-0.735 0,-0.406 0,0"
         style="fill:#000000;fill-opacity:1;fill-rule:evenodd;stroke:none"
         id="path594"
         inkscape:connector-curvature="0" />
    </g>
    <g
       id="g596"
       transform="matrix(1.25,0,0,-1.25,306.81747,353.2262)">
      <path
         d="M 0,0 0,1.789 M 0,3.257 0,5.045 M -0.765,0 0.704,0 m -1.469,5.045 1.469,0"
         style="fill:none;stroke:#000000;stroke-width:0.30000001;stroke-linecap:butt;stroke-linejoin:miter;stroke-miterlimit:10;stroke-dasharray:none;stroke-opacity:1"
         id="path598"
         inkscape:connector-curvature="0" />
    </g>
    <g
       id="g600"
       transform="matrix(1.25,0,0,-1.25,307.72749,350.03244)">
      <path
         d="M 0,0 C 0,0.405 -0.329,0.734 -0.735,0.734 -1.14,0.734 -1.468,0.405 -1.468,0 c 0,-0.406 0.328,-0.734 0.733,-0.734 C -0.329,-0.734 0,-0.406 0,0"
         style="fill:#000000;fill-opacity:1;fill-rule:evenodd;stroke:none"
         id="path602"
         inkscape:connector-curvature="0" />
    </g>
    <g
       id="g604"
       transform="matrix(1.25,0,0,-1.25,321.34622,341.4912)">
      <path
         d="M 0,0 0,4.086 M 0,5.555 0,9.643 M -0.702,0 0.767,0 m -1.469,9.643 1.469,0"
         style="fill:none;stroke:#000000;stroke-width:0.30000001;stroke-linecap:butt;stroke-linejoin:miter;stroke-miterlimit:10;stroke-dasharray:none;stroke-opacity:1"
         id="path606"
         inkscape:connector-curvature="0" />
    </g>
    <g
       id="g608"
       transform="matrix(1.25,0,0,-1.25,322.26997,335.41994)">
      <path
         d="M 0,0 C 0,0.407 -0.329,0.736 -0.734,0.736 -1.14,0.736 -1.469,0.407 -1.469,0 c 0,-0.403 0.329,-0.733 0.735,-0.733 C -0.329,-0.733 0,-0.403 0,0"
         style="fill:#000000;fill-opacity:1;fill-rule:evenodd;stroke:none"
         id="path610"
         inkscape:connector-curvature="0" />
    </g>
    <g
       id="g612"
       transform="matrix(1.25,0,0,-1.25,335.55498,365.35869)">
      <path
         d="M 0,0 0,1.979 M 0,3.384 0,5.3 M -0.701,0 0.703,0 m -1.404,5.3 1.404,0"
         style="fill:none;stroke:#000000;stroke-width:0.30000001;stroke-linecap:butt;stroke-linejoin:miter;stroke-miterlimit:10;stroke-dasharray:none;stroke-opacity:1"
         id="path614"
         inkscape:connector-curvature="0" />
    </g>
    <g
       id="g616"
       transform="matrix(1.25,0,0,-1.25,336.47623,362.0112)">
      <path
         d="m 0,0 c 0,0.405 -0.329,0.734 -0.735,0.734 -0.404,0 -0.733,-0.329 -0.733,-0.734 0,-0.406 0.329,-0.735 0.733,-0.735 C -0.329,-0.735 0,-0.406 0,0"
         style="fill:#000000;fill-opacity:1;fill-rule:evenodd;stroke:none"
         id="path618"
         inkscape:connector-curvature="0" />
    </g>
    <g
       id="g620"
       transform="matrix(1.25,0,0,-1.25,350.00248,366.23744)">
      <path
         d="M 0,0 0,1.405 M 0,2.874 0,4.28 M -0.701,0 0.768,0 m -1.469,4.28 1.469,0"
         style="fill:none;stroke:#000000;stroke-width:0.30000001;stroke-linecap:butt;stroke-linejoin:miter;stroke-miterlimit:10;stroke-dasharray:none;stroke-opacity:1"
         id="path622"
         inkscape:connector-curvature="0" />
    </g>
    <g
       id="g624"
       transform="matrix(1.25,0,0,-1.25,350.92373,363.52119)">
      <path
         d="m 0,0 c 0,0.405 -0.33,0.736 -0.735,0.736 -0.406,0 -0.734,-0.331 -0.734,-0.736 0,-0.406 0.328,-0.733 0.734,-0.733 C -0.33,-0.733 0,-0.406 0,0"
         style="fill:#000000;fill-opacity:1;fill-rule:evenodd;stroke:none"
         id="path626"
         inkscape:connector-curvature="0" />
    </g>
    <g
       id="g628"
       transform="matrix(1.25,0,0,-1.25,363.33498,371.98369)">
      <path
         d="M 0,0 0,1.405 M 0,2.873 0,4.278 M -0.767,0 0.702,0 m -1.469,4.278 1.469,0"
         style="fill:none;stroke:#000000;stroke-width:0.30000001;stroke-linecap:butt;stroke-linejoin:miter;stroke-miterlimit:10;stroke-dasharray:none;stroke-opacity:1"
         id="path630"
         inkscape:connector-curvature="0" />
    </g>
    <g
       id="g632"
       transform="matrix(1.25,0,0,-1.25,364.26748,369.34244)">
      <path
         d="M 0,0 C 0,0.406 -0.328,0.734 -0.734,0.734 -1.14,0.734 -1.469,0.406 -1.469,0 c 0,-0.406 0.329,-0.735 0.735,-0.735 C -0.328,-0.735 0,-0.406 0,0"
         style="fill:#000000;fill-opacity:1;fill-rule:evenodd;stroke:none"
         id="path634"
         inkscape:connector-curvature="0" />
    </g>
    <g
       id="g636"
       transform="matrix(1.25,0,0,-1.25,377.14248,367.75369)">
      <path
         d="M 0,0 0,1.278 M 0,2.746 0,4.087 M -0.701,0 0.704,0 m -1.405,4.087 1.405,0"
         style="fill:none;stroke:#000000;stroke-width:0.30000001;stroke-linecap:butt;stroke-linejoin:miter;stroke-miterlimit:10;stroke-dasharray:none;stroke-opacity:1"
         id="path638"
         inkscape:connector-curvature="0" />
    </g>
    <g
       id="g640"
       transform="matrix(1.25,0,0,-1.25,378.06497,365.19868)">
      <path
         d="m 0,0 c 0,0.406 -0.326,0.735 -0.733,0.735 -0.405,0 -0.734,-0.329 -0.734,-0.735 0,-0.405 0.329,-0.734 0.734,-0.734 C -0.326,-0.734 0,-0.405 0,0"
         style="fill:#000000;fill-opacity:1;fill-rule:evenodd;stroke:none"
         id="path642"
         inkscape:connector-curvature="0" />
    </g>
    <g
       id="g644"
       transform="matrix(1.25,0,0,-1.25,391.43373,363.68369)">
      <path
         d="M 0,0 0,1.278 M 0,2.746 0,4.024 M -0.766,0 0.701,0 m -1.467,4.024 1.467,0"
         style="fill:none;stroke:#000000;stroke-width:0.30000001;stroke-linecap:butt;stroke-linejoin:miter;stroke-miterlimit:10;stroke-dasharray:none;stroke-opacity:1"
         id="path646"
         inkscape:connector-curvature="0" />
    </g>
    <g
       id="g648"
       transform="matrix(1.25,0,0,-1.25,392.34623,361.19619)">
      <path
         d="M 0,0 C 0,0.405 -0.328,0.734 -0.736,0.734 -1.14,0.734 -1.47,0.405 -1.47,0 c 0,-0.407 0.33,-0.735 0.734,-0.735 C -0.328,-0.735 0,-0.407 0,0"
         style="fill:#000000;fill-opacity:1;fill-rule:evenodd;stroke:none"
         id="path650"
         inkscape:connector-curvature="0" />
    </g>
    <g
       id="g652"
       transform="matrix(1.25,0,0,-1.25,306.81747,353.2262)">
      <path
         d="M 0,0 0,1.789 M 0,3.257 0,5.045 M -0.765,0 0.704,0 m -1.469,5.045 1.469,0"
         style="fill:none;stroke:#00ff00;stroke-width:0.30000001;stroke-linecap:butt;stroke-linejoin:miter;stroke-miterlimit:10;stroke-dasharray:none;stroke-opacity:1"
         id="path654"
         inkscape:connector-curvature="0" />
    </g>
    <g
       id="g656"
       transform="matrix(1.25,0,0,-1.25,307.72749,350.03244)">
      <path
         d="M 0,0 C 0,0.405 -0.329,0.734 -0.735,0.734 -1.14,0.734 -1.468,0.405 -1.468,0 c 0,-0.406 0.328,-0.734 0.733,-0.734 C -0.329,-0.734 0,-0.406 0,0"
         style="fill:#00ff00;fill-opacity:1;fill-rule:evenodd;stroke:none"
         id="path658"
         inkscape:connector-curvature="0" />
    </g>
    <g
       id="g660"
       transform="matrix(1.25,0,0,-1.25,321.34622,341.4912)">
      <path
         d="M 0,0 0,4.086 M 0,5.555 0,9.643 M -0.702,0 0.767,0 m -1.469,9.643 1.469,0"
         style="fill:none;stroke:#00ff00;stroke-width:0.30000001;stroke-linecap:butt;stroke-linejoin:miter;stroke-miterlimit:10;stroke-dasharray:none;stroke-opacity:1"
         id="path662"
         inkscape:connector-curvature="0" />
    </g>
    <g
       id="g664"
       transform="matrix(1.25,0,0,-1.25,322.26997,335.41994)">
      <path
         d="M 0,0 C 0,0.407 -0.329,0.736 -0.734,0.736 -1.14,0.736 -1.469,0.407 -1.469,0 c 0,-0.403 0.329,-0.733 0.735,-0.733 C -0.329,-0.733 0,-0.403 0,0"
         style="fill:#00ff00;fill-opacity:1;fill-rule:evenodd;stroke:none"
         id="path666"
         inkscape:connector-curvature="0" />
    </g>
    <g
       id="g668"
       transform="matrix(1.25,0,0,-1.25,267.55249,262.62245)">
      <path
         d="m 0,0 0.953,-11.88 0.574,-6.195 0.575,-5.427 C 4.434,-41.086 6.764,-69.073 23.431,-80.21 l 0.51,-0.382 1.15,-0.767 c 6.309,-3.82 13.56,-5.647 20.754,-6.96 l 0.575,-0.065 0.574,-0.128 0.513,-0.063 c 17.776,-2.686 36.532,-3.009 54.47,-3.513 l 0.575,-0.063 2.235,0"
         style="fill:none;stroke:#ff0000;stroke-width:0.30000001;stroke-linecap:butt;stroke-linejoin:miter;stroke-miterlimit:10;stroke-dasharray:1.199, 1.199;stroke-dashoffset:0;stroke-opacity:1"
         id="path670"
         inkscape:connector-curvature="0" />
    </g>
    <g
       id="g672"
       transform="matrix(1.25,0,0,-1.25,267.81124,262.64743)">
      <path
         d="m 0,0 0.171,-2.408 0.575,-6.898 0.574,-6.067 c 2.077,-16.412 3.776,-42.876 17.37,-54.918 l 1.725,-1.342 0.51,-0.383 c 6.141,-4.381 13.997,-6.287 21.329,-7.472 l 0.574,-0.127 1.151,-0.128 0.574,-0.128 c 18.661,-2.357 37.868,-2.561 56.643,-2.936 l 0.574,-0.065 2.81,0"
         style="fill:none;stroke:#ff0000;stroke-width:0.30000001;stroke-linecap:butt;stroke-linejoin:miter;stroke-miterlimit:10;stroke-dasharray:none;stroke-opacity:1"
         id="path674"
         inkscape:connector-curvature="0" />
    </g>
    <g
       id="g676"
       transform="matrix(1.25,0,0,-1.25,272.25498,407.58619)">
      <path
         d="M 0,0 0,115.956 M 11.239,0 l 0,115.97 M 22.479,0 l 0,116.574 M 33.654,0 l 0,115.792 M 44.893,0 l 0,115.896 M 56.132,0 l 0,115.837 M 67.372,0 l 0,115.866 M 78.547,0 l 0,115.851 M 89.786,0 l 0,115.822 M 101.025,0 l 0,115.842"
         style="fill:none;stroke:#000000;stroke-width:0.5;stroke-linecap:butt;stroke-linejoin:miter;stroke-miterlimit:10;stroke-dasharray:0.4, 0.8;stroke-dashoffset:0;stroke-opacity:1"
         id="path678"
         inkscape:connector-curvature="0" />
    </g>
    <text
       y="228.15747"
       x="-339.5672"
       transform="matrix(0,-1,1,0,0,0)"
       style="font-variant:normal;font-weight:normal;font-size:8.35262489px;font-family:Symbol;-inkscape-font-specification:Symbol;writing-mode:lr-tb;fill:#000000;fill-opacity:1;fill-rule:nonzero;stroke:none"
       id="text826">
      <tspan
         x="-339.5672"
         y="228.15747"
         id="tspan828">σ</tspan>
    </text>
    <text
       y="230.54398"
       x="-334.53058"
       transform="matrix(0,-1,1,0,0,0)"
       style="font-variant:normal;font-weight:normal;font-size:5.96612501px;font-family:Helvetica;-inkscape-font-specification:Helvetica;writing-mode:lr-tb;fill:#000000;fill-opacity:1;fill-rule:nonzero;stroke:none"
       id="text830">
      <tspan
         x="-334.53058"
         y="230.54398"
         id="tspan832">Q</tspan>
    </text>
    <text
       y="230.54398"
       x="-329.88892"
       transform="matrix(0,-1,1,0,0,0)"
       style="font-variant:normal;font-weight:normal;font-size:5.96612501px;font-family:Symbol;-inkscape-font-specification:Symbol;writing-mode:lr-tb;fill:#000000;fill-opacity:1;fill-rule:nonzero;stroke:none"
       id="text834">
      <tspan
         x="-329.88892"
         y="230.54398"
         id="tspan836">γ</tspan>
    </text>
  </g>
</svg>
